<svg id="Layer_1" data-name="Layer 1" xmlns="http://www.w3.org/2000/svg" viewBox="0 0 385.37 186.92"><defs><style>.cls-1{font-size:23.44px;fill:#231f20;font-family:TimesNewRomanPS-ItalicMT, Times New Roman;font-style:italic;}.cls-2{fill:#c55822;}</style></defs><text class="cls-1" transform="translate(211.07 83.62)">What makes us</text><path class="cls-2" d="M137.92,2.29a3.63,3.63,0,0,1-1.25,2.51A6.46,6.46,0,0,0,135,8.34c-.28,1-.77,1.46-1.46,1.46a2.72,2.72,0,0,1-1.25-.31c-.42-.21-.94-.45-1.57-.73A12.65,12.65,0,0,0,128.43,8a18.17,18.17,0,0,0-3.86-.31,27.92,27.92,0,0,0-7.1.93A22.81,22.81,0,0,0,111,11.47,75.91,75.91,0,0,0,98.38,22.11,112.23,112.23,0,0,0,86,37.12q-14,20-24.52,37.43T43.82,105.73a211.77,211.77,0,0,0-10.64,23.46q-3.55,9.7-3.55,14.29a10.18,10.18,0,0,0,1.56,5.84c1.05,1.53,2.75,2.29,5.12,2.29a18.58,18.58,0,0,0,10.74-3.54,52.18,52.18,0,0,0,9.7-8.87,77.19,77.19,0,0,0,8.35-11.78q3.75-6.47,6.47-12.09a1.1,1.1,0,0,1,1.35-.63c.63.14.59.7-.1,1.67q-3.75,7.5-8,14.28a83.16,83.16,0,0,1-9,11.89,41.12,41.12,0,0,1-9.8,8,20.26,20.26,0,0,1-10.12,2.92q-5.64,0-8.35-3a11.29,11.29,0,0,1-2.71-7.83,33.07,33.07,0,0,1,2-10.74A120,120,0,0,1,33,117.83q-5.85,7.1-10.23,11.89a73.11,73.11,0,0,1-7.72,7.5,30,30,0,0,1-5.74,3.86A10.18,10.18,0,0,1,5,142.23c-1.95,0-3.27-.52-4-1.56a7.21,7.21,0,0,1-1-4.07,15.69,15.69,0,0,1,1-4.9A28,28,0,0,1,4,125.75a83.17,83.17,0,0,1,17.22-20.43q9.5-7.93,23.47-10.43,10-17.52,19.2-31.49a334.09,334.09,0,0,1,20-27.32,203,203,0,0,1,17.84-19.81A67.86,67.86,0,0,1,120,3.34Q127.06,0,132.29,0a11.08,11.08,0,0,1,4.07.63C137.4,1,137.92,1.6,137.92,2.29ZM43,98q-7.93.21-12.2,3a32.73,32.73,0,0,0-7.62,7q-7.93,9.8-11.27,16.78T8.55,135.14a1.5,1.5,0,0,0,.84,1.46,3.14,3.14,0,0,0,1.25.42c1,0,2.75-1.05,5.32-3.13a74.23,74.23,0,0,0,8.56-8.45A145.49,145.49,0,0,0,34.22,113,100.09,100.09,0,0,0,43,98Z"/><path class="cls-2" d="M109.16,113.62a94.93,94.93,0,0,1-11.48,12.3,98.58,98.58,0,0,1-11.89,9.39,37.5,37.5,0,0,1-8.55,4.17,25.52,25.52,0,0,1-7.93,1.46,23.65,23.65,0,0,1-2.92-.21,7.53,7.53,0,0,1-3-1,7.73,7.73,0,0,1-2.3-2.19,6.37,6.37,0,0,1-.93-3.65,19.79,19.79,0,0,1,2.08-7.41q2.09-4.69,4.91-9.69t5.63-9.6c1.88-3.05,3.37-5.35,4.49-6.88a7.88,7.88,0,0,1,3.65-2.82,11.5,11.5,0,0,1,3.44-1.14c.69,0,1,.21,1,.62a4,4,0,0,1-.31,1.26,3.55,3.55,0,0,1-.73,1.25q-2.72,4.17-5.53,9.17t-5.11,9.7A75.19,75.19,0,0,0,70,127a20.65,20.65,0,0,0-1.36,6.26A4.5,4.5,0,0,0,70,136.87,5.43,5.43,0,0,0,73.69,138a19,19,0,0,0,9.18-2.82,70.42,70.42,0,0,0,9.91-6.78,94.22,94.22,0,0,0,9.08-8.34,81.46,81.46,0,0,0,6.47-7.51c.69-.69,1.07-.86,1.14-.52A3,3,0,0,1,109.16,113.62ZM99.77,67.11a7.66,7.66,0,0,1-2.19,5,6.46,6.46,0,0,1-4.9,2.5,2.22,2.22,0,0,1-2.51-2.5,8.32,8.32,0,0,1,2-5.22,6,6,0,0,1,4.91-2.5A2.4,2.4,0,0,1,99.77,67.11Z"/><path class="cls-2" d="M243.18,11.32c0,1.95-.91,4.35-2.71,7.19a36.73,36.73,0,0,1-7.2,8.14,47.61,47.61,0,0,1-10.33,6.67,27.54,27.54,0,0,1-12.1,2.82c-1.4,0-3.2-.11-5.43-.32s-4.66-.52-7.3-.94Q196,37.6,192.79,42.5t-7.1,11.15q-3.85,6.26-7.92,13.35t-7.62,14.18L200,81a.55.55,0,0,1,.62.63,1.69,1.69,0,0,1-.83,1.25l-30.67.21q-7.73,14.39-15.55,29.3t-15.13,26.8a188.77,188.77,0,0,1-14.29,20.64,80.32,80.32,0,0,1-13.35,13.35,44.48,44.48,0,0,1-12.94,7.09,41.62,41.62,0,0,1-13,2.09,54.53,54.53,0,0,1-10.64-1A27.89,27.89,0,0,1,66,178.57a32.35,32.35,0,0,1-4.38-4.38q-2.92,2.09-6.57,4.38a61.06,61.06,0,0,1-7.93,4.17,55.19,55.19,0,0,1-8.87,3,39.69,39.69,0,0,1-9.6,1.15,7.24,7.24,0,0,1-5.32-2.51,22.55,22.55,0,0,0-4.9-4c-.7-.42-.84-.77-.42-1a1.37,1.37,0,0,1,1.46,0,34.94,34.94,0,0,0,6.89,2,39.55,39.55,0,0,0,7.51.94,46.76,46.76,0,0,0,12.31-2,49,49,0,0,0,14.6-7.2c-.69-1-1.38-2-2.08-2.92a23.17,23.17,0,0,1-1.88-3.13c0-.69.35-.9,1-.62a17,17,0,0,0,4.38,5.63A86.39,86.39,0,0,0,75.52,159.6,98.33,98.33,0,0,0,86.9,144q8.13-14.38,16.27-30.13t16.07-30.14l-15.86.42c-1.39,0-1.81-.52-1.25-1.56A2.54,2.54,0,0,1,104.42,81l16.28.21c1.67-3.05,3.47-6.36,5.42-9.9s4.07-7,6.37-10.43,4.66-6.64,7.09-9.7a46.82,46.82,0,0,1,7.62-7.71q2.09-1.68,4.59-3.55c1.67-1.25,3.4-2.5,5.21-3.75s3.62-2.4,5.43-3.44a30.72,30.72,0,0,1,5-2.4,46.69,46.69,0,0,1,16.69-2.92c2.09,0,4.83.07,8.24.21a70,70,0,0,1,7.62.62c1.53-1.8,3.47-4.07,5.84-6.78A67.58,67.58,0,0,1,214,13.61a55,55,0,0,1,9.91-6.46,23.8,23.8,0,0,1,11-2.71q4.38,0,6.37,2A6.65,6.65,0,0,1,243.18,11.32ZM127.37,83.48q-5.62,10.22-11.26,21t-11.06,19.91q-5.22,9-9.91,15.75t-9.39,12.4A102.85,102.85,0,0,1,75.63,163q-5.43,4.89-12.31,10.11a22.82,22.82,0,0,0,10.33,5.53,50.31,50.31,0,0,0,12.41,1.56,34.18,34.18,0,0,0,22-7.61q9.5-7.62,18.89-24.5,3.33-5.85,7.51-14.08t8.66-17.1q4.49-8.86,9.07-17.73t8.56-16Zm67.82-49.22c-3.2-.55-6.44-1-9.7-1.36a83.93,83.93,0,0,0-8.45-.52,43.52,43.52,0,0,0-11,1.15,22.33,22.33,0,0,0-7.2,3.23,38.67,38.67,0,0,0-6.26,5.42,64.72,64.72,0,0,0-6.26,8.14q-3.33,5-7.51,12.41T128.63,81.18H161.8q4.59-7.92,9.39-15.12t9.29-13.34q4.49-6.15,8.34-10.95T195.19,34.26ZM239.63,14A8.24,8.24,0,0,0,238,9.34q-1.67-2.4-6.47-2.4a18.74,18.74,0,0,0-5.53.94,24,24,0,0,0-6.57,3.44A60.43,60.43,0,0,0,211.67,18a96.61,96.61,0,0,0-9,10.64q2.72.42,5.84.63t5.84.2a41.92,41.92,0,0,0,8.66-.94,29.53,29.53,0,0,0,8.14-2.91,20.17,20.17,0,0,0,6-4.91A10.2,10.2,0,0,0,239.63,14Z"/><path class="cls-2" d="M209.06,119a97.92,97.92,0,0,1-8.45,9.08A79.66,79.66,0,0,1,190,136.61a60.74,60.74,0,0,1-11.89,6.25,33.48,33.48,0,0,1-12.21,2.4q-9.81,0-9.81-8.76a31,31,0,0,1,3-12.61,53.09,53.09,0,0,1,7.82-12.52,50.43,50.43,0,0,1,10.54-9.59q5.73-3.86,11-3.86c1.94,0,3.3.35,4.06,1a3.51,3.51,0,0,1,1.15,2.72,11.64,11.64,0,0,1-1.56,5.42,19,19,0,0,1-4.7,5.53,26.83,26.83,0,0,1-7.93,4.37A32.94,32.94,0,0,1,168,118.78a33.24,33.24,0,0,0-2.3,5.94,28,28,0,0,0-1.25,8.24q0,8.55,7.72,8.55a24,24,0,0,0,9.91-2.3,56.74,56.74,0,0,0,9.91-5.73,70.78,70.78,0,0,0,8.87-7.51,77.45,77.45,0,0,0,6.78-7.61.84.84,0,0,1,1.46.62Zm-21.91-16.26a2.39,2.39,0,0,0-2.71-2.71,7.4,7.4,0,0,0-4.28,1.56,22.73,22.73,0,0,0-4.27,4.07,52.56,52.56,0,0,0-4,5.42,48.43,48.43,0,0,0-3.13,5.63,4.61,4.61,0,0,0,1.46.31,15,15,0,0,0,1.67.11,15.15,15.15,0,0,0,10.64-4.28A13.36,13.36,0,0,0,187.15,102.72Z"/><path class="cls-2" d="M245.58,101.26A33,33,0,0,0,243,104.8a19.57,19.57,0,0,0-1.77,3.13.83.83,0,0,1-.84.63q-.21,0-.63-.63a9.63,9.63,0,0,0-1.14-1.35,7.59,7.59,0,0,0-2-1.36,8,8,0,0,0-3.54-.62,12.56,12.56,0,0,0-6.05,1.87,31.18,31.18,0,0,0-5.85,4.17,46.69,46.69,0,0,0-7,7.3c-2,2.64-3.93,5.39-5.73,8.24s-3.55,5.77-5.22,8.76-3.48,6-5.43,9.07c-.14.42-.55.63-1.25.63-.28,0-.87-.42-1.77-1.25s-1.36-1.47-1.36-1.88a8.71,8.71,0,0,1,1.46-3.76q3.34-5.83,6.78-11.78l6.47-11.16q3-5.2,5.32-9.07a60.39,60.39,0,0,0,3.13-5.73c.7-1.25,1.18-1.88,1.46-1.88a6.55,6.55,0,0,1,2.09,1,3.28,3.28,0,0,1,1.67,2.92,5.75,5.75,0,0,1-.73,2.09c-.49,1-1,2-1.67,3s-1.22,2.06-1.77,3-1,1.66-1.25,2.08c-.42.7-.49,1-.21,1a1.7,1.7,0,0,0,1-.62q2.09-2.08,5.11-4.59a71.09,71.09,0,0,1,6.37-4.69,47.2,47.2,0,0,1,6.57-3.65A14.27,14.27,0,0,1,241,98.34a5.51,5.51,0,0,1,3.23.94A2.56,2.56,0,0,1,245.58,101.26Z"/><path class="cls-2" d="M290.44,119a100.74,100.74,0,0,1-8.45,9.08,79.12,79.12,0,0,1-10.65,8.55,60.46,60.46,0,0,1-11.89,6.25,33.39,33.39,0,0,1-12.2,2.4q-9.81,0-9.81-8.76a31.18,31.18,0,0,1,3-12.61,53.45,53.45,0,0,1,7.83-12.52,50.43,50.43,0,0,1,10.54-9.59q5.73-3.86,10.95-3.86c2,0,3.3.35,4.07,1a3.54,3.54,0,0,1,1.15,2.72,11.67,11.67,0,0,1-1.57,5.42,19,19,0,0,1-4.69,5.53,27,27,0,0,1-7.93,4.37,33,33,0,0,1-11.48,1.78,32.61,32.61,0,0,0-2.29,5.94,27.7,27.7,0,0,0-1.26,8.24q0,8.55,7.72,8.55a24,24,0,0,0,9.92-2.3,57.1,57.1,0,0,0,9.91-5.73,71.41,71.41,0,0,0,8.86-7.51,76.38,76.38,0,0,0,6.79-7.61.79.79,0,0,1,.93-.21A.82.82,0,0,1,290.44,119Zm-21.91-16.26a2.4,2.4,0,0,0-2.71-2.71,7.38,7.38,0,0,0-4.28,1.56,23.08,23.08,0,0,0-4.28,4.07,54,54,0,0,0-4,5.42,45.64,45.64,0,0,0-3.13,5.63,4.54,4.54,0,0,0,1.46.31,14.82,14.82,0,0,0,1.67.11,15.15,15.15,0,0,0,10.64-4.28A13.36,13.36,0,0,0,268.53,102.72Z"/><path class="cls-2" d="M346.15,116.9a112.89,112.89,0,0,1-8.66,10.53,78.55,78.55,0,0,1-10.43,9.49,64.41,64.41,0,0,1-11.27,6.88,26,26,0,0,1-11.17,2.71,13.77,13.77,0,0,1-4.59-.73c-1.39-.49-2.08-1.7-2.08-3.65a18.55,18.55,0,0,1,2.08-7.4q2.09-4.48,4.91-9.49T310.78,115a88.56,88.56,0,0,0,4.9-9.59,2.27,2.27,0,0,0,.11-1.77c-.21-.49-.66-.53-1.36-.11a66.32,66.32,0,0,0-5.42,4q-3.13,2.51-6.37,5.32t-6.26,5.74a63.7,63.7,0,0,0-4.9,5.21q-3.35,5.22-5.74,9.59t-5.95,9.81c-.55.83-1,1.25-1.25,1.25-.69,0-1.28-.76-1.77-2.3a13.26,13.26,0,0,1-.73-2.92q0-1.87,2.61-5.11c1.73-2.15,3.65-4.55,5.73-7.19q3.35-6.68,6.89-14.08t6.05-13.24a2.07,2.07,0,0,1,1.88-1,3.6,3.6,0,0,1,3.34,3.33q0,.84-3,5.74A101.4,101.4,0,0,0,293.57,119q4-3.54,8.66-7.5c3.13-2.64,6.11-5.08,9-7.3s5.35-4.07,7.51-5.53,3.65-2.19,4.49-2.19a2,2,0,0,1,1.56.94,2.94,2.94,0,0,1,.73,1.77,5.59,5.59,0,0,1-1,2.51c-1.54,2.22-3.41,5.07-5.64,8.55s-4.35,7-6.36,10.74a109.08,109.08,0,0,0-5.11,10.53,22.25,22.25,0,0,0-2.09,7.92c0,1.67.35,2.82,1,3.44a4.9,4.9,0,0,0,3.34.94q3.56,0,8.35-2.71a76,76,0,0,0,9.91-6.78,84.2,84.2,0,0,0,9.7-9.07,70.44,70.44,0,0,0,7.51-9.59,1,1,0,0,1,1.26-.31C346.91,115.54,346.84,116.07,346.15,116.9Z"/><path class="cls-2" d="M383.71,67.68A16.29,16.29,0,0,0,380,69.25a8.22,8.22,0,0,0-3.13,2.81q-4.8,6.68-9.29,14t-8.65,14.59h25.87c.42.28.62.56.62.84a.66.66,0,0,1-.41.62c-1.12,0-2.79,0-5,.11s-4.66.17-7.3.31l-8.14.42q-4.18.21-7.3.41a195.83,195.83,0,0,0-9,17.73q-3.12,7.31-3.13,12.72,0,7.52,6.89,7.51a20.35,20.35,0,0,0,7.62-1.77,67.08,67.08,0,0,0,9.07-4.7c.42-.41.84-.38,1.25.11s.28.87-.41,1.15a61.71,61.71,0,0,1-13.15,6.67,37.53,37.53,0,0,1-12.31,2.08,9.13,9.13,0,0,1-5.84-2c-1.67-1.32-2.51-3.57-2.51-6.77q0-4.17,3.76-12.31a200.32,200.32,0,0,1,11.06-20l-6.16.52c-2.43.21-3.86.32-4.27.32q-1.05,0-1.05-.84a10.38,10.38,0,0,1,2.72-2.92l10.64-.21q1.88-3.12,4.17-7l4.59-7.72q2.29-3.86,4.7-7.51c1.59-2.43,3-4.69,4.27-6.77,1.53-.7,3.65-1.6,6.37-2.72s5.11-2,7.2-2.71c.27,0,.48.18.62.52S384.26,67.4,383.71,67.68Z"/></svg>